<svg width="1920" height="62" viewBox="0 0 1920 62" fill="none" xmlns="http://www.w3.org/2000/svg">
<g filter="url(#filter0_i_21_94)">
<path d="M159.965 35.5789C519.624 44.6442 881.464 40.0082 901.225 35.9787C920.985 31.9493 1899.16 48.3404 1899.16 35.9787C1899.16 23.6169 901.225 50.5082 901.225 50.5082L159.965 43.5082C159.965 43.5082 -199.694 26.5137 159.965 35.5789Z" fill="#FFEF5E"/>
<path d="M1889.35 6.40985L1899.39 23.6675L1917.9 19.3278L1905.59 34.3334L1915.63 51.591L1897.99 43.6073L1885.68 58.6128L1887.08 38.673L1869.44 30.6893L1887.95 26.3496L1889.35 6.40985Z" fill="#FFEF5E"/>
<path d="M1875.63 43.4168C1872.71 43.0132 1869.73 43.0521 1866.91 43.9494C1861.97 45.5191 1857.63 48.9016 1853.23 51.5396C1850.96 52.8973 1848.69 54.3886 1846.26 55.428C1843.65 56.5437 1840.85 56.8254 1838.04 56.9061C1833.63 57.0326 1829.22 56.3179 1825.05 54.9219" stroke="#FFEF5E" stroke-linecap="round" stroke-dasharray="2 2"/>
<path d="M1876.1 20.4066C1874.26 18.6907 1872.12 18.7288 1869.71 18.7288C1866.96 18.7288 1864.19 18.6349 1861.44 18.8885C1856.68 19.3285 1852.09 20.6213 1847.45 21.7116C1839.92 23.48 1831.23 26.057 1823.43 24.8009C1820.63 24.3486 1817.98 23.198 1815.39 22.0844C1812.83 20.9864 1810.3 20.2041 1807.63 19.4478" stroke="#FFEF5E" stroke-linecap="round" stroke-dasharray="2 2"/>
<path d="M1859.88 31.1926C1857.95 29.5726 1854.49 29.1984 1852.11 29.0887C1845.84 28.7988 1839.52 29.0354 1833.24 29.0354C1827.55 29.0354 1821.58 29.5159 1815.93 28.7158C1810.72 27.9773 1805.69 26.6985 1800.4 26.4654C1797.72 26.3475 1795.04 26.3988 1792.37 26.3988" stroke="#FFEF5E" stroke-linecap="round" stroke-dasharray="2 2"/>
<path d="M1782.82 27.3575C1780.79 27.3575 1778.82 26.841 1776.89 26.239C1769.37 23.8995 1762.09 20.305 1754.06 20.2733C1751.95 20.265 1749.98 20.6239 1748.11 21.6316C1746 22.7717 1744.2 23.8727 1741.76 24.2016C1733.18 25.3612 1724.44 23.2942 1716.03 21.8446" stroke="#FFEF5E" stroke-linecap="round" stroke-dasharray="2 2"/>
<path d="M1866.8 16.5715C1863.93 14.3266 1859.34 13.1437 1855.76 13.0028C1848.32 12.7098 1840.83 12.9762 1833.39 12.9762C1826.01 12.9762 1818.32 13.6067 1810.97 12.8164C1805.82 12.2613 1800.73 10.4024 1795.71 9.14111" stroke="#FFEF5E" stroke-linecap="round" stroke-dasharray="2 2"/>
<path d="M1796.18 18.9684C1795.11 18.8487 1793.87 18.0081 1792.87 17.6101C1787.78 15.5765 1782.56 14.8806 1777.1 14.5741C1774.93 14.4524 1772.69 14.334 1770.52 14.5208C1767.9 14.7464 1765.71 15.8163 1763.29 16.7313C1755.12 19.8221 1748.23 14.5855 1741.07 11.0586" stroke="#FFEF5E" stroke-linecap="round" stroke-dasharray="2 2"/>
<path d="M1880.4 16.8111C1880.21 14.945 1876.65 13.402 1875.33 12.7364C1871.85 10.9793 1868 10.1929 1864.19 9.55383C1860.61 8.95388 1856.69 8.32736 1853.07 9.06113C1851.08 9.46385 1849.68 10.6368 1847.91 11.498C1846.33 12.2692 1844.58 12.5498 1842.84 12.4434C1840.44 12.2974 1838.22 11.4276 1835.96 10.699C1833.13 9.78857 1830.36 9.33104 1827.44 8.90134" stroke="#FFEF5E" stroke-linecap="round" stroke-dasharray="2 2"/>
<path d="M1869.18 49.8884C1863.01 49.8884 1858.71 54.4903 1853.7 57.3987C1845.69 62.0531 1835.45 60.6985 1826.72 59.2364" stroke="#FFEF5E" stroke-linecap="round" stroke-dasharray="2 2"/>
<path d="M1845.09 46.2931C1844.95 45.7367 1843.19 46.1443 1842.85 46.1732C1837.81 46.5953 1832.86 46.5773 1827.9 47.7978C1825.06 48.4971 1822.26 49.4213 1819.56 50.5542C1815.59 52.2231 1811.96 54.6317 1808.01 56.3068C1802.35 58.7019 1796.11 55.2163 1790.94 53.0044" stroke="#FFEF5E" stroke-linecap="round" stroke-dasharray="2 2"/>
<path d="M1808.11 47.4915C1807.56 47.3798 1807.01 46.7671 1806.55 46.4795C1804.58 45.2529 1802.42 44.3812 1800.16 43.8962C1796.67 43.1498 1792.79 42.7218 1789.25 43.3103C1785.95 43.8588 1783.45 45.8865 1780.81 47.7845C1775.34 51.7197 1769.81 54.1243 1763.02 54.3893C1759.44 54.5293 1755.62 55.0341 1752.76 52.5251" stroke="#FFEF5E" stroke-linecap="round" stroke-dasharray="2 2"/>
</g>
<defs>
<filter id="filter0_i_21_94" x="0.116882" y="6.40985" width="1917.78" height="58.7026" filterUnits="userSpaceOnUse" color-interpolation-filters="sRGB">
<feFlood flood-opacity="0" result="BackgroundImageFix"/>
<feBlend mode="normal" in="SourceGraphic" in2="BackgroundImageFix" result="shape"/>
<feColorMatrix in="SourceAlpha" type="matrix" values="0 0 0 0 0 0 0 0 0 0 0 0 0 0 0 0 0 0 127 0" result="hardAlpha"/>
<feOffset dy="4"/>
<feGaussianBlur stdDeviation="2"/>
<feComposite in2="hardAlpha" operator="arithmetic" k2="-1" k3="1"/>
<feColorMatrix type="matrix" values="0 0 0 0 0 0 0 0 0 0 0 0 0 0 0 0 0 0 0.25 0"/>
<feBlend mode="normal" in2="shape" result="effect1_innerShadow_21_94"/>
</filter>
</defs>
</svg>
